# xmcd CD database file
#
# Track frame offsets:
#	150
#	36428
#	77365
#	117383
#	151412
#	189543
#	203335
#	213877
#	242420
#	274233
#
# Disc length: 4326 seconds
#
# Revision: 10
# Processed by: cddbd v1.4PL0 Copyright (c) Steve Scherf et al.
# Submitted via: CDex 1.50beta10
#
DISCID=7d10e40a
DTITLE=Paul Oakenfold - Perfecto Presents Another World - Disc 2
DYEAR=2000
DGENRE=Trance
TTITLE0=Jamez Presents Tatoine - Music
TTITLE1=Salt Tank - Eugena 2000 (Progressive Summer Mix)
TTITLE2=Lost Witness - Song To The Siren (Did I Dream) (Fable Mix)
TTITLE3=Skope - Back And Front
TTITLE4=Jan Johnston - Flesh (DJ Tiesto Mix)
TTITLE5=Vangelis - Rachel's Song
TTITLE6=Lisa Gerrard - Sacrifice
TTITLE7=Lost It.com - Animal
TTITLE8=Blackwatch - Northsky
TTITLE9=Delerium - The Silence 2000 (DJ Tiesto Remix)
EXTD=YEAR: 2000
EXTT0=
EXTT1=
EXTT2=
EXTT3=
EXTT4=
EXTT5=
EXTT6=
EXTT7=
EXTT8=
EXTT9=
PLAYORDER=
